<mxfile host="app.diagrams.net" modified="2024-03-21T10:08:15.193Z" agent="Mozilla/5.0 (X11; Linux x86_64) AppleWebKit/537.36 (KHTML, like Gecko) Chrome/122.0.0.0 Safari/537.36" etag="YgQ8XUtRGpO5j-uvoh1l" version="24.0.7" type="github">
  <diagram name="Page-1" id="c7558073-3199-34d8-9f00-42111426c3f3">
    <mxGraphModel dx="4097" dy="2203" grid="1" gridSize="10" guides="1" tooltips="1" connect="1" arrows="1" fold="1" page="1" pageScale="1" pageWidth="826" pageHeight="1169" background="none" math="0" shadow="0">
      <root>
        <mxCell id="0" />
        <mxCell id="1" parent="0" />
        <mxCell id="iwvGlQX-osIPtCATk8MM-108" style="edgeStyle=orthogonalEdgeStyle;rounded=0;orthogonalLoop=1;jettySize=auto;html=1;fontFamily=Helvetica;" edge="1" parent="1" source="iwvGlQX-osIPtCATk8MM-97" target="iwvGlQX-osIPtCATk8MM-101">
          <mxGeometry relative="1" as="geometry" />
        </mxCell>
        <mxCell id="iwvGlQX-osIPtCATk8MM-109" value="" style="edgeStyle=orthogonalEdgeStyle;rounded=0;orthogonalLoop=1;jettySize=auto;html=1;fontFamily=Helvetica;" edge="1" parent="1" source="iwvGlQX-osIPtCATk8MM-97" target="iwvGlQX-osIPtCATk8MM-107">
          <mxGeometry relative="1" as="geometry" />
        </mxCell>
        <mxCell id="iwvGlQX-osIPtCATk8MM-97" value="&lt;b style=&quot;font-size: 16px;&quot;&gt;&lt;font style=&quot;font-size: 16px;&quot;&gt;Main Menu&amp;nbsp;&lt;/font&gt;&lt;/b&gt;&lt;div style=&quot;font-size: 16px;&quot;&gt;&lt;div style=&quot;font-size: 14px;&quot;&gt;&lt;ul style=&quot;&quot;&gt;&lt;li style=&quot;text-align: left;&quot;&gt;Start Button&lt;/li&gt;&lt;li style=&quot;text-align: left;&quot;&gt;Options Button&lt;/li&gt;&lt;li style=&quot;text-align: left;&quot;&gt;Achievement Gallery Access&lt;/li&gt;&lt;li style=&quot;text-align: left;&quot;&gt;Multiplayer Portal Entry&lt;/li&gt;&lt;li style=&quot;text-align: left;&quot;&gt;Parental Dashboard Entry (secured with a PIN or password)&lt;/li&gt;&lt;/ul&gt;&lt;/div&gt;&lt;/div&gt;&lt;div&gt;&lt;br&gt;&lt;/div&gt;" style="rounded=1;whiteSpace=wrap;html=1;fillColor=#1ba1e2;strokeColor=#006EAF;fontColor=#ffffff;fontFamily=Helvetica;" vertex="1" parent="1">
          <mxGeometry x="210" y="90" width="230" height="220" as="geometry" />
        </mxCell>
        <mxCell id="iwvGlQX-osIPtCATk8MM-99" value="&lt;font style=&quot;&quot;&gt;&lt;span style=&quot;font-size: 16px;&quot;&gt;&lt;b&gt;Character Customization Screen&lt;/b&gt;&lt;/span&gt;&lt;b style=&quot;font-size: 16px;&quot;&gt;&amp;nbsp;&amp;nbsp;&lt;/b&gt;&lt;/font&gt;&lt;div&gt;&lt;div style=&quot;text-align: left;&quot;&gt;&lt;ul&gt;&lt;li&gt;Selection for various character traits (hair, clothes, accessories)&lt;/li&gt;&lt;li&gt;Save and Continue Button to confirm choices&lt;/li&gt;&lt;/ul&gt;&lt;/div&gt;&lt;/div&gt;" style="rounded=1;whiteSpace=wrap;html=1;fillColor=#dae8fc;strokeColor=#6c8ebf;glass=0;imageVerticalAlign=top;fontFamily=Helvetica;" vertex="1" parent="1">
          <mxGeometry x="550" y="420" width="230" height="220" as="geometry" />
        </mxCell>
        <mxCell id="iwvGlQX-osIPtCATk8MM-112" style="edgeStyle=orthogonalEdgeStyle;rounded=0;orthogonalLoop=1;jettySize=auto;html=1;fontFamily=Helvetica;" edge="1" parent="1" source="iwvGlQX-osIPtCATk8MM-101" target="iwvGlQX-osIPtCATk8MM-104">
          <mxGeometry relative="1" as="geometry" />
        </mxCell>
        <mxCell id="iwvGlQX-osIPtCATk8MM-101" value="&lt;div style=&quot;&quot;&gt;&lt;div style=&quot;&quot;&gt;&lt;b style=&quot;font-size: 16px; text-align: left; background-color: initial;&quot;&gt;Learning Journey Map&lt;/b&gt;&lt;br&gt;&lt;ul style=&quot;&quot;&gt;&lt;li style=&quot;text-align: left;&quot;&gt;&lt;span style=&quot;background-color: initial;&quot;&gt;Visual path with unlocked and locked modules&lt;/span&gt;&lt;br&gt;&lt;/li&gt;&lt;li style=&quot;text-align: left;&quot;&gt;Interactive elements representing different nutritional topics&lt;/li&gt;&lt;li style=&quot;text-align: left;&quot;&gt;Progress indicators showing completed and upcoming lessons&lt;/li&gt;&lt;/ul&gt;&lt;/div&gt;&lt;/div&gt;&lt;div&gt;&lt;br&gt;&lt;/div&gt;" style="rounded=1;whiteSpace=wrap;html=1;fillColor=#d80073;strokeColor=#A50040;fontColor=#ffffff;fontFamily=Helvetica;" vertex="1" parent="1">
          <mxGeometry x="590" y="90" width="230" height="220" as="geometry" />
        </mxCell>
        <mxCell id="iwvGlQX-osIPtCATk8MM-114" style="edgeStyle=orthogonalEdgeStyle;rounded=0;orthogonalLoop=1;jettySize=auto;html=1;fontFamily=Helvetica;" edge="1" parent="1" source="iwvGlQX-osIPtCATk8MM-102" target="iwvGlQX-osIPtCATk8MM-105">
          <mxGeometry relative="1" as="geometry" />
        </mxCell>
        <mxCell id="iwvGlQX-osIPtCATk8MM-102" value="&lt;div style=&quot;&quot;&gt;&lt;div style=&quot;&quot;&gt;&lt;div style=&quot;&quot;&gt;&lt;span style=&quot;background-color: initial; font-size: 16px;&quot;&gt;&lt;b&gt;Nutritional Information Pop-ups&lt;/b&gt;&lt;/span&gt;&lt;/div&gt;&lt;ul style=&quot;&quot;&gt;&lt;li style=&quot;text-align: left;&quot;&gt;&lt;span style=&quot;background-color: initial;&quot;&gt;Overlay screens that provide detailed information when interacting with food items&lt;/span&gt;&lt;br&gt;&lt;/li&gt;&lt;li style=&quot;text-align: left;&quot;&gt;Back Button to return to the previous screen&lt;/li&gt;&lt;/ul&gt;&lt;/div&gt;&lt;/div&gt;&lt;div&gt;&lt;br&gt;&lt;/div&gt;" style="rounded=1;whiteSpace=wrap;html=1;fillColor=#d80073;strokeColor=#A50040;fontColor=#ffffff;fontFamily=Helvetica;" vertex="1" parent="1">
          <mxGeometry x="1400" y="90" width="330" height="220" as="geometry" />
        </mxCell>
        <mxCell id="iwvGlQX-osIPtCATk8MM-103" value="&lt;div style=&quot;&quot;&gt;&lt;div style=&quot;&quot;&gt;&lt;div style=&quot;&quot;&gt;&lt;br&gt;&lt;span style=&quot;font-size: 16px;&quot;&gt;&lt;b&gt;Shop Interface&lt;/b&gt;&lt;/span&gt;&lt;br&gt;&lt;/div&gt;&lt;ul style=&quot;&quot;&gt;&lt;li style=&quot;text-align: left;&quot;&gt;&lt;span style=&quot;background-color: initial;&quot;&gt;Virtual shop shelves with categorized food items&lt;/span&gt;&lt;br&gt;&lt;/li&gt;&lt;li style=&quot;text-align: left;&quot;&gt;Basket icon to review selected items before purchase&lt;/li&gt;&lt;li style=&quot;text-align: left;&quot;&gt;Coin balance display and top-up option for in-app purchases&lt;/li&gt;&lt;/ul&gt;&lt;/div&gt;&lt;/div&gt;&lt;div&gt;&lt;br&gt;&lt;/div&gt;" style="rounded=1;whiteSpace=wrap;html=1;fillColor=#ffe6cc;strokeColor=#d79b00;fontFamily=Helvetica;" vertex="1" parent="1">
          <mxGeometry x="160" y="730" width="330" height="220" as="geometry" />
        </mxCell>
        <mxCell id="iwvGlQX-osIPtCATk8MM-113" style="edgeStyle=orthogonalEdgeStyle;rounded=0;orthogonalLoop=1;jettySize=auto;html=1;fontFamily=Helvetica;" edge="1" parent="1" source="iwvGlQX-osIPtCATk8MM-104" target="iwvGlQX-osIPtCATk8MM-102">
          <mxGeometry relative="1" as="geometry" />
        </mxCell>
        <mxCell id="iwvGlQX-osIPtCATk8MM-104" value="&lt;div style=&quot;&quot;&gt;&lt;div style=&quot;&quot;&gt;&lt;div style=&quot;&quot;&gt;&lt;br&gt;&lt;/div&gt;&lt;span style=&quot;font-size: 16px;&quot;&gt;&lt;b&gt;Play Area&lt;/b&gt;&lt;/span&gt;&lt;ul style=&quot;&quot;&gt;&lt;li style=&quot;text-align: left;&quot;&gt;&lt;span style=&quot;background-color: initial;&quot;&gt;The central area displaying the character and well-being meter&lt;/span&gt;&lt;br&gt;&lt;/li&gt;&lt;li style=&quot;text-align: left;&quot;&gt;Drag-and-drop functionality for feeding the character&lt;/li&gt;&lt;li style=&quot;text-align: left;&quot;&gt;Visual feedback on characterâ€™s health after eating choices&lt;/li&gt;&lt;/ul&gt;&lt;/div&gt;&lt;/div&gt;&lt;div&gt;&lt;br&gt;&lt;/div&gt;" style="rounded=1;whiteSpace=wrap;html=1;fillColor=#60a917;strokeColor=#2D7600;fontColor=#ffffff;fontFamily=Helvetica;" vertex="1" parent="1">
          <mxGeometry x="960" y="90" width="330" height="220" as="geometry" />
        </mxCell>
        <mxCell id="iwvGlQX-osIPtCATk8MM-115" style="edgeStyle=orthogonalEdgeStyle;rounded=0;orthogonalLoop=1;jettySize=auto;html=1;fontFamily=Helvetica;" edge="1" parent="1" source="iwvGlQX-osIPtCATk8MM-105" target="iwvGlQX-osIPtCATk8MM-106">
          <mxGeometry relative="1" as="geometry" />
        </mxCell>
        <mxCell id="iwvGlQX-osIPtCATk8MM-105" value="&lt;div style=&quot;&quot;&gt;&lt;div style=&quot;&quot;&gt;&lt;div style=&quot;&quot;&gt;&lt;br&gt;&lt;/div&gt;&lt;span style=&quot;font-size: 16px;&quot;&gt;&lt;b&gt;Quiz Interface&lt;/b&gt;&lt;/span&gt;&lt;br&gt;&lt;ul style=&quot;&quot;&gt;&lt;li style=&quot;text-align: left;&quot;&gt;&lt;span style=&quot;background-color: initial;&quot;&gt;Question display area&lt;/span&gt;&lt;br&gt;&lt;/li&gt;&lt;li style=&quot;text-align: left;&quot;&gt;&lt;span style=&quot;background-color: initial;&quot;&gt;Multiple-choice answer buttons&lt;/span&gt;&lt;br&gt;&lt;/li&gt;&lt;li style=&quot;text-align: left;&quot;&gt;Timer bar for time-limited questions&lt;/li&gt;&lt;li style=&quot;text-align: left;&quot;&gt;Coin reward animation upon correct answers&lt;/li&gt;&lt;/ul&gt;&lt;/div&gt;&lt;/div&gt;&lt;div&gt;&lt;br&gt;&lt;/div&gt;" style="rounded=1;whiteSpace=wrap;html=1;fillColor=#d80073;strokeColor=#A50040;fontColor=#ffffff;fontFamily=Helvetica;" vertex="1" parent="1">
          <mxGeometry x="1810" y="90" width="330" height="220" as="geometry" />
        </mxCell>
        <mxCell id="iwvGlQX-osIPtCATk8MM-106" value="&lt;div style=&quot;&quot;&gt;&lt;div style=&quot;&quot;&gt;&lt;div style=&quot;&quot;&gt;&lt;b style=&quot;font-size: 16px; background-color: initial;&quot;&gt;Multiplayer Challenge Lobby&lt;/b&gt;&lt;br&gt;&lt;/div&gt;&lt;ul style=&quot;&quot;&gt;&lt;li style=&quot;text-align: left;&quot;&gt;&lt;span style=&quot;background-color: initial;&quot;&gt;List of active friends and challenge invites&lt;/span&gt;&lt;br&gt;&lt;/li&gt;&lt;li style=&quot;text-align: left;&quot;&gt;Leaderboard showing top scorers and healthiest characters&lt;/li&gt;&lt;/ul&gt;&lt;/div&gt;&lt;/div&gt;&lt;div&gt;&lt;br&gt;&lt;/div&gt;" style="rounded=1;whiteSpace=wrap;html=1;fillColor=#d80073;strokeColor=#A50040;fontColor=#ffffff;fontFamily=Helvetica;" vertex="1" parent="1">
          <mxGeometry x="2250" y="90" width="380" height="220" as="geometry" />
        </mxCell>
        <mxCell id="iwvGlQX-osIPtCATk8MM-110" value="" style="edgeStyle=orthogonalEdgeStyle;rounded=0;orthogonalLoop=1;jettySize=auto;html=1;fontFamily=Helvetica;" edge="1" parent="1" source="iwvGlQX-osIPtCATk8MM-107" target="iwvGlQX-osIPtCATk8MM-99">
          <mxGeometry relative="1" as="geometry" />
        </mxCell>
        <mxCell id="iwvGlQX-osIPtCATk8MM-111" value="" style="edgeStyle=orthogonalEdgeStyle;rounded=0;orthogonalLoop=1;jettySize=auto;html=1;fontFamily=Helvetica;" edge="1" parent="1" source="iwvGlQX-osIPtCATk8MM-107" target="iwvGlQX-osIPtCATk8MM-103">
          <mxGeometry relative="1" as="geometry" />
        </mxCell>
        <mxCell id="iwvGlQX-osIPtCATk8MM-107" value="&lt;div style=&quot;&quot;&gt;&lt;div style=&quot;&quot;&gt;&lt;div style=&quot;&quot;&gt;&lt;span style=&quot;background-color: initial;&quot;&gt;&lt;span style=&quot;font-size: 16px;&quot;&gt;&lt;b&gt;Settings Menu&lt;/b&gt;&lt;/span&gt;&lt;b style=&quot;font-size: 16px;&quot;&gt;&amp;nbsp;&lt;/b&gt;&lt;/span&gt;&lt;br&gt;&lt;/div&gt;&lt;div style=&quot;&quot;&gt;&lt;span style=&quot;background-color: initial;&quot;&gt;&lt;b style=&quot;font-size: 16px;&quot;&gt;&lt;br&gt;&lt;/b&gt;&lt;/span&gt;&lt;/div&gt;&lt;/div&gt;&lt;/div&gt;&lt;div&gt;&lt;li style=&quot;text-align: left;&quot;&gt;Music and sound effects toggles&lt;/li&gt;&lt;li style=&quot;text-align: left;&quot;&gt;Accessibility options&lt;/li&gt;&lt;li style=&quot;text-align: left;&quot;&gt;Logout Button&lt;/li&gt;&lt;/div&gt;" style="rounded=1;whiteSpace=wrap;html=1;fillColor=#6a00ff;strokeColor=#3700CC;fontColor=#ffffff;fontFamily=Helvetica;" vertex="1" parent="1">
          <mxGeometry x="195" y="420" width="260" height="220" as="geometry" />
        </mxCell>
      </root>
    </mxGraphModel>
  </diagram>
</mxfile>
